<svg xmlns="http://www.w3.org/2000/svg" xmlns:xlink="http://www.w3.org/1999/xlink" width="500" zoomAndPan="magnify" viewBox="0 0 375 374.999991" height="500" preserveAspectRatio="xMidYMid meet" version="1.0"><defs><g/><clipPath id="f58f57c632"><path d="M 111 125.246094 L 187 125.246094 L 187 194.246094 L 111 194.246094 Z M 111 125.246094 " clip-rule="nonzero"/></clipPath><clipPath id="dfae10e5c8"><path d="M 191 125.246094 L 264 125.246094 L 264 191 L 191 191 Z M 191 125.246094 " clip-rule="nonzero"/></clipPath></defs><g clip-path="url(#f58f57c632)"><path fill="#ffffff" d="M 169.0625 167.097656 C 154.6875 161.25 117.464844 158.949219 123.109375 125.242188 C 123.109375 125.242188 108.441406 147.789062 142.042969 168.210938 C 142.042969 168.210938 116.929688 166.550781 111.773438 139.675781 C 111.773438 139.675781 107.667969 167.289062 143.085938 181.8125 C 143.085938 181.8125 123.878906 180.859375 112.824219 165.179688 C 112.824219 165.179688 116.148438 183.386719 140.464844 189.550781 C 159.011719 194.25 178.480469 177.859375 186.125 194.195312 C 186.125 194.195312 188.5625 175.03125 169.0625 167.097656 " fill-opacity="1" fill-rule="nonzero"/></g><g clip-path="url(#dfae10e5c8)"><path fill="#ffffff" d="M 231.765625 181.8125 C 267.183594 167.289062 263.078125 139.675781 263.078125 139.675781 C 257.921875 166.550781 232.808594 168.210938 232.808594 168.210938 C 266.410156 147.789062 251.742188 125.242188 251.742188 125.242188 C 257.386719 158.949219 220.164062 161.25 205.789062 167.097656 C 203.320312 168.101562 201.203125 169.289062 199.386719 170.589844 C 202.316406 171.234375 205.5 173.238281 205.796875 176.460938 C 204.636719 175.652344 203.734375 174.480469 203.734375 174.480469 C 203.707031 176.371094 205.234375 177.503906 206.097656 177.996094 C 206.839844 179.507812 208.808594 181.085938 208.542969 184.300781 C 202.171875 178.65625 196.152344 183.628906 191.808594 189.789062 C 200.824219 181.347656 217.96875 193.710938 234.386719 189.550781 C 258.703125 183.386719 262.027344 165.179688 262.027344 165.179688 C 250.972656 180.859375 231.765625 181.8125 231.765625 181.8125 " fill-opacity="1" fill-rule="nonzero"/></g><g fill="#ffffff" fill-opacity="1"><g transform="translate(85.834833, 226.649268)"><g><path d="M 7.1875 -16.734375 L 7.1875 -11.296875 L 16.703125 -11.296875 L 16.703125 -7.484375 L 7.1875 -7.484375 L 7.1875 0 L 2.4375 0 L 2.4375 -20.546875 L 17.96875 -20.546875 L 17.96875 -16.734375 Z M 7.1875 -16.734375 "/></g></g></g><g fill="#ffffff" fill-opacity="1"><g transform="translate(106.317639, 226.649268)"><g><path d="M 2.4375 -20.546875 L 7.1875 -20.546875 L 7.1875 0 L 2.4375 0 Z M 2.4375 -20.546875 "/></g></g></g><g fill="#ffffff" fill-opacity="1"><g transform="translate(117.674549, 226.649268)"><g><path d="M 6.6875 -16.671875 L 0.125 -16.671875 L 0.125 -20.546875 L 18.03125 -20.546875 L 18.03125 -16.671875 L 11.453125 -16.671875 L 11.453125 0 L 6.6875 0 Z M 6.6875 -16.671875 "/></g></g></g><g fill="#ffffff" fill-opacity="1"><g transform="translate(137.541137, 226.649268)"><g><path d="M 21.28125 -20.546875 L 21.28125 0 L 17.375 0 L 7.140625 -12.484375 L 7.140625 0 L 2.4375 0 L 2.4375 -20.546875 L 6.375 -20.546875 L 16.59375 -8.078125 L 16.59375 -20.546875 Z M 21.28125 -20.546875 "/></g></g></g><g fill="#ffffff" fill-opacity="1"><g transform="translate(162.983033, 226.649268)"><g><path d="M 15.96875 -4.40625 L 6.4375 -4.40625 L 4.609375 0 L -0.265625 0 L 8.890625 -20.546875 L 13.59375 -20.546875 L 22.78125 0 L 17.796875 0 Z M 14.46875 -8.015625 L 11.21875 -15.890625 L 7.953125 -8.015625 Z M 14.46875 -8.015625 "/></g></g></g><g fill="#ffffff" fill-opacity="1"><g transform="translate(187.192493, 226.649268)"><g><path d="M 21.28125 -20.546875 L 21.28125 0 L 17.375 0 L 7.140625 -12.484375 L 7.140625 0 L 2.4375 0 L 2.4375 -20.546875 L 6.375 -20.546875 L 16.59375 -8.078125 L 16.59375 -20.546875 Z M 21.28125 -20.546875 "/></g></g></g><g fill="#ffffff" fill-opacity="1"><g transform="translate(212.63439, 226.649268)"><g><path d="M 12.265625 0.359375 C 10.171875 0.359375 8.273438 -0.09375 6.578125 -1 C 4.890625 -1.914062 3.5625 -3.179688 2.59375 -4.796875 C 1.625 -6.410156 1.140625 -8.238281 1.140625 -10.28125 C 1.140625 -12.3125 1.625 -14.132812 2.59375 -15.75 C 3.5625 -17.363281 4.890625 -18.625 6.578125 -19.53125 C 8.273438 -20.445312 10.179688 -20.90625 12.296875 -20.90625 C 14.078125 -20.90625 15.6875 -20.59375 17.125 -19.96875 C 18.570312 -19.34375 19.78125 -18.441406 20.75 -17.265625 L 17.703125 -14.4375 C 16.316406 -16.050781 14.59375 -16.859375 12.53125 -16.859375 C 11.257812 -16.859375 10.125 -16.578125 9.125 -16.015625 C 8.132812 -15.453125 7.359375 -14.671875 6.796875 -13.671875 C 6.234375 -12.679688 5.953125 -11.550781 5.953125 -10.28125 C 5.953125 -9.007812 6.234375 -7.875 6.796875 -6.875 C 7.359375 -5.875 8.132812 -5.09375 9.125 -4.53125 C 10.125 -3.976562 11.257812 -3.703125 12.53125 -3.703125 C 14.59375 -3.703125 16.316406 -4.515625 17.703125 -6.140625 L 20.75 -3.3125 C 19.78125 -2.125 18.566406 -1.210938 17.109375 -0.578125 C 15.660156 0.046875 14.046875 0.359375 12.265625 0.359375 Z M 12.265625 0.359375 "/></g></g></g><g fill="#ffffff" fill-opacity="1"><g transform="translate(235.875508, 226.649268)"><g><path d="M 2.4375 -20.546875 L 7.1875 -20.546875 L 7.1875 0 L 2.4375 0 Z M 2.4375 -20.546875 "/></g></g></g><g fill="#ffffff" fill-opacity="1"><g transform="translate(247.232418, 226.649268)"><g><path d="M 15.96875 -4.40625 L 6.4375 -4.40625 L 4.609375 0 L -0.265625 0 L 8.890625 -20.546875 L 13.59375 -20.546875 L 22.78125 0 L 17.796875 0 Z M 14.46875 -8.015625 L 11.21875 -15.890625 L 7.953125 -8.015625 Z M 14.46875 -8.015625 "/></g></g></g><g fill="#ffffff" fill-opacity="1"><g transform="translate(271.441877, 226.649268)"><g><path d="M 2.4375 -20.546875 L 7.1875 -20.546875 L 7.1875 -3.875 L 17.5 -3.875 L 17.5 0 L 2.4375 0 Z M 2.4375 -20.546875 "/></g></g></g><g fill="#ffffff" fill-opacity="1"><g transform="translate(114.971049, 246.350038)"><g><path d="M 4.265625 0.15625 C 3.515625 0.15625 2.785156 0.0546875 2.078125 -0.140625 C 1.367188 -0.347656 0.800781 -0.613281 0.375 -0.9375 L 1.125 -2.609375 C 1.539062 -2.304688 2.03125 -2.0625 2.59375 -1.875 C 3.15625 -1.695312 3.71875 -1.609375 4.28125 -1.609375 C 4.90625 -1.609375 5.367188 -1.703125 5.671875 -1.890625 C 5.972656 -2.078125 6.125 -2.320312 6.125 -2.625 C 6.125 -2.851562 6.035156 -3.039062 5.859375 -3.1875 C 5.679688 -3.34375 5.453125 -3.460938 5.171875 -3.546875 C 4.890625 -3.640625 4.515625 -3.742188 4.046875 -3.859375 C 3.316406 -4.023438 2.71875 -4.191406 2.25 -4.359375 C 1.789062 -4.535156 1.394531 -4.816406 1.0625 -5.203125 C 0.738281 -5.585938 0.578125 -6.097656 0.578125 -6.734375 C 0.578125 -7.285156 0.722656 -7.785156 1.015625 -8.234375 C 1.316406 -8.679688 1.769531 -9.035156 2.375 -9.296875 C 2.976562 -9.566406 3.71875 -9.703125 4.59375 -9.703125 C 5.195312 -9.703125 5.789062 -9.628906 6.375 -9.484375 C 6.957031 -9.335938 7.46875 -9.128906 7.90625 -8.859375 L 7.21875 -7.1875 C 6.34375 -7.6875 5.460938 -7.9375 4.578125 -7.9375 C 3.960938 -7.9375 3.503906 -7.832031 3.203125 -7.625 C 2.910156 -7.425781 2.765625 -7.164062 2.765625 -6.84375 C 2.765625 -6.507812 2.929688 -6.265625 3.265625 -6.109375 C 3.609375 -5.953125 4.132812 -5.796875 4.84375 -5.640625 C 5.5625 -5.460938 6.148438 -5.285156 6.609375 -5.109375 C 7.078125 -4.941406 7.476562 -4.671875 7.8125 -4.296875 C 8.144531 -3.929688 8.3125 -3.429688 8.3125 -2.796875 C 8.3125 -2.242188 8.15625 -1.742188 7.84375 -1.296875 C 7.539062 -0.847656 7.085938 -0.492188 6.484375 -0.234375 C 5.878906 0.0234375 5.140625 0.15625 4.265625 0.15625 Z M 4.265625 0.15625 "/></g></g></g><g fill="#ffffff" fill-opacity="1"><g transform="translate(131.388896, 246.350038)"><g><path d="M 5.75 0.15625 C 4.757812 0.15625 3.863281 -0.0546875 3.0625 -0.484375 C 2.269531 -0.910156 1.648438 -1.492188 1.203125 -2.234375 C 0.753906 -2.984375 0.53125 -3.828125 0.53125 -4.765625 C 0.53125 -5.703125 0.753906 -6.546875 1.203125 -7.296875 C 1.648438 -8.046875 2.269531 -8.632812 3.0625 -9.0625 C 3.863281 -9.488281 4.757812 -9.703125 5.75 -9.703125 C 6.738281 -9.703125 7.628906 -9.488281 8.421875 -9.0625 C 9.210938 -8.632812 9.832031 -8.046875 10.28125 -7.296875 C 10.738281 -6.546875 10.96875 -5.703125 10.96875 -4.765625 C 10.96875 -3.828125 10.738281 -2.984375 10.28125 -2.234375 C 9.832031 -1.492188 9.210938 -0.910156 8.421875 -0.484375 C 7.628906 -0.0546875 6.738281 0.15625 5.75 0.15625 Z M 5.75 -1.71875 C 6.3125 -1.71875 6.816406 -1.847656 7.265625 -2.109375 C 7.722656 -2.367188 8.082031 -2.726562 8.34375 -3.1875 C 8.601562 -3.65625 8.734375 -4.179688 8.734375 -4.765625 C 8.734375 -5.359375 8.601562 -5.882812 8.34375 -6.34375 C 8.082031 -6.8125 7.722656 -7.175781 7.265625 -7.4375 C 6.816406 -7.695312 6.3125 -7.828125 5.75 -7.828125 C 5.1875 -7.828125 4.675781 -7.695312 4.21875 -7.4375 C 3.769531 -7.175781 3.414062 -6.8125 3.15625 -6.34375 C 2.894531 -5.882812 2.765625 -5.359375 2.765625 -4.765625 C 2.765625 -4.179688 2.894531 -3.65625 3.15625 -3.1875 C 3.414062 -2.726562 3.769531 -2.367188 4.21875 -2.109375 C 4.675781 -1.847656 5.1875 -1.71875 5.75 -1.71875 Z M 5.75 -1.71875 "/></g></g></g><g fill="#ffffff" fill-opacity="1"><g transform="translate(150.611897, 246.350038)"><g><path d="M 1.125 -9.53125 L 3.34375 -9.53125 L 3.34375 -1.796875 L 8.125 -1.796875 L 8.125 0 L 1.125 0 Z M 1.125 -9.53125 "/></g></g></g><g fill="#ffffff" fill-opacity="1"><g transform="translate(166.566762, 246.350038)"><g><path d="M 5.375 0.15625 C 4.007812 0.15625 2.945312 -0.21875 2.1875 -0.96875 C 1.425781 -1.71875 1.046875 -2.796875 1.046875 -4.203125 L 1.046875 -9.53125 L 3.25 -9.53125 L 3.25 -4.28125 C 3.25 -2.570312 3.957031 -1.71875 5.375 -1.71875 C 6.070312 -1.71875 6.597656 -1.921875 6.953125 -2.328125 C 7.316406 -2.742188 7.5 -3.394531 7.5 -4.28125 L 7.5 -9.53125 L 9.6875 -9.53125 L 9.6875 -4.203125 C 9.6875 -2.796875 9.304688 -1.71875 8.546875 -0.96875 C 7.785156 -0.21875 6.726562 0.15625 5.375 0.15625 Z M 5.375 0.15625 "/></g></g></g><g fill="#ffffff" fill-opacity="1"><g transform="translate(185.027196, 246.350038)"><g><path d="M 3.109375 -7.734375 L 0.046875 -7.734375 L 0.046875 -9.53125 L 8.359375 -9.53125 L 8.359375 -7.734375 L 5.3125 -7.734375 L 5.3125 0 L 3.109375 0 Z M 3.109375 -7.734375 "/></g></g></g><g fill="#ffffff" fill-opacity="1"><g transform="translate(201.172697, 246.350038)"><g><path d="M 1.125 -9.53125 L 3.34375 -9.53125 L 3.34375 0 L 1.125 0 Z M 1.125 -9.53125 "/></g></g></g><g fill="#ffffff" fill-opacity="1"><g transform="translate(213.369209, 246.350038)"><g><path d="M 5.75 0.15625 C 4.757812 0.15625 3.863281 -0.0546875 3.0625 -0.484375 C 2.269531 -0.910156 1.648438 -1.492188 1.203125 -2.234375 C 0.753906 -2.984375 0.53125 -3.828125 0.53125 -4.765625 C 0.53125 -5.703125 0.753906 -6.546875 1.203125 -7.296875 C 1.648438 -8.046875 2.269531 -8.632812 3.0625 -9.0625 C 3.863281 -9.488281 4.757812 -9.703125 5.75 -9.703125 C 6.738281 -9.703125 7.628906 -9.488281 8.421875 -9.0625 C 9.210938 -8.632812 9.832031 -8.046875 10.28125 -7.296875 C 10.738281 -6.546875 10.96875 -5.703125 10.96875 -4.765625 C 10.96875 -3.828125 10.738281 -2.984375 10.28125 -2.234375 C 9.832031 -1.492188 9.210938 -0.910156 8.421875 -0.484375 C 7.628906 -0.0546875 6.738281 0.15625 5.75 0.15625 Z M 5.75 -1.71875 C 6.3125 -1.71875 6.816406 -1.847656 7.265625 -2.109375 C 7.722656 -2.367188 8.082031 -2.726562 8.34375 -3.1875 C 8.601562 -3.65625 8.734375 -4.179688 8.734375 -4.765625 C 8.734375 -5.359375 8.601562 -5.882812 8.34375 -6.34375 C 8.082031 -6.8125 7.722656 -7.175781 7.265625 -7.4375 C 6.816406 -7.695312 6.3125 -7.828125 5.75 -7.828125 C 5.1875 -7.828125 4.675781 -7.695312 4.21875 -7.4375 C 3.769531 -7.175781 3.414062 -6.8125 3.15625 -6.34375 C 2.894531 -5.882812 2.765625 -5.359375 2.765625 -4.765625 C 2.765625 -4.179688 2.894531 -3.65625 3.15625 -3.1875 C 3.414062 -2.726562 3.769531 -2.367188 4.21875 -2.109375 C 4.675781 -1.847656 5.1875 -1.71875 5.75 -1.71875 Z M 5.75 -1.71875 "/></g></g></g><g fill="#ffffff" fill-opacity="1"><g transform="translate(232.592203, 246.350038)"><g><path d="M 9.875 -9.53125 L 9.875 0 L 8.0625 0 L 3.3125 -5.796875 L 3.3125 0 L 1.125 0 L 1.125 -9.53125 L 2.953125 -9.53125 L 7.703125 -3.75 L 7.703125 -9.53125 Z M 9.875 -9.53125 "/></g></g></g><g fill="#ffffff" fill-opacity="1"><g transform="translate(251.32499, 246.350038)"><g><path d="M 4.265625 0.15625 C 3.515625 0.15625 2.785156 0.0546875 2.078125 -0.140625 C 1.367188 -0.347656 0.800781 -0.613281 0.375 -0.9375 L 1.125 -2.609375 C 1.539062 -2.304688 2.03125 -2.0625 2.59375 -1.875 C 3.15625 -1.695312 3.71875 -1.609375 4.28125 -1.609375 C 4.90625 -1.609375 5.367188 -1.703125 5.671875 -1.890625 C 5.972656 -2.078125 6.125 -2.320312 6.125 -2.625 C 6.125 -2.851562 6.035156 -3.039062 5.859375 -3.1875 C 5.679688 -3.34375 5.453125 -3.460938 5.171875 -3.546875 C 4.890625 -3.640625 4.515625 -3.742188 4.046875 -3.859375 C 3.316406 -4.023438 2.71875 -4.191406 2.25 -4.359375 C 1.789062 -4.535156 1.394531 -4.816406 1.0625 -5.203125 C 0.738281 -5.585938 0.578125 -6.097656 0.578125 -6.734375 C 0.578125 -7.285156 0.722656 -7.785156 1.015625 -8.234375 C 1.316406 -8.679688 1.769531 -9.035156 2.375 -9.296875 C 2.976562 -9.566406 3.71875 -9.703125 4.59375 -9.703125 C 5.195312 -9.703125 5.789062 -9.628906 6.375 -9.484375 C 6.957031 -9.335938 7.46875 -9.128906 7.90625 -8.859375 L 7.21875 -7.1875 C 6.34375 -7.6875 5.460938 -7.9375 4.578125 -7.9375 C 3.960938 -7.9375 3.503906 -7.832031 3.203125 -7.625 C 2.910156 -7.425781 2.765625 -7.164062 2.765625 -6.84375 C 2.765625 -6.507812 2.929688 -6.265625 3.265625 -6.109375 C 3.609375 -5.953125 4.132812 -5.796875 4.84375 -5.640625 C 5.5625 -5.460938 6.148438 -5.285156 6.609375 -5.109375 C 7.078125 -4.941406 7.476562 -4.671875 7.8125 -4.296875 C 8.144531 -3.929688 8.3125 -3.429688 8.3125 -2.796875 C 8.3125 -2.242188 8.15625 -1.742188 7.84375 -1.296875 C 7.539062 -0.847656 7.085938 -0.492188 6.484375 -0.234375 C 5.878906 0.0234375 5.140625 0.15625 4.265625 0.15625 Z M 4.265625 0.15625 "/></g></g></g></svg>