<svg xmlns="http://www.w3.org/2000/svg" xmlns:xlink="http://www.w3.org/1999/xlink" width="500" zoomAndPan="magnify" viewBox="0 0 375 374.999991" height="500" preserveAspectRatio="xMidYMid meet" version="1.0"><defs><g/><clipPath id="389bb6a919"><path d="M 134 101.695312 L 241.097656 101.695312 L 241.097656 194.695312 L 134 194.695312 Z M 134 101.695312 " clip-rule="nonzero"/></clipPath></defs><path fill="#ffffff" d="M 167.746094 165.242188 L 171.710938 165.242188 L 171.710938 161.292969 L 167.746094 161.292969 L 167.746094 165.242188 " fill-opacity="1" fill-rule="nonzero"/><path fill="#ffffff" d="M 207.394531 161.292969 L 203.429688 161.292969 L 203.429688 165.242188 L 207.394531 165.242188 L 207.394531 161.292969 " fill-opacity="1" fill-rule="nonzero"/><path fill="#ffffff" d="M 185.589844 147.460938 L 185.589844 150.964844 C 182.273438 151.21875 179.640625 153.96875 179.640625 157.339844 L 179.640625 158.820312 C 179.640625 162.355469 182.53125 165.242188 186.085938 165.242188 L 189.058594 165.242188 C 190.429688 165.242188 191.535156 166.347656 191.535156 167.714844 L 191.535156 169.195312 C 191.535156 170.554688 190.429688 171.664062 189.058594 171.664062 L 186.085938 171.664062 C 184.714844 171.664062 183.605469 170.554688 183.605469 169.195312 L 179.640625 169.195312 C 179.640625 172.558594 182.273438 175.308594 185.589844 175.5625 L 185.589844 179.074219 L 189.554688 179.074219 L 189.554688 175.5625 C 192.867188 175.308594 195.5 172.558594 195.5 169.195312 L 195.5 167.714844 C 195.5 164.171875 192.613281 161.292969 189.058594 161.292969 L 186.085938 161.292969 C 184.714844 161.292969 183.605469 160.179688 183.605469 158.820312 L 183.605469 157.339844 C 183.605469 155.972656 184.714844 154.871094 186.085938 154.871094 L 189.058594 154.871094 C 190.429688 154.871094 191.535156 155.972656 191.535156 157.339844 L 195.5 157.339844 C 195.5 153.96875 192.867188 151.21875 189.554688 150.964844 L 189.554688 147.460938 L 185.589844 147.460938 " fill-opacity="1" fill-rule="nonzero"/><g clip-path="url(#389bb6a919)"><path fill="#ffffff" d="M 146.078125 158.558594 L 153.53125 167.21875 L 149.90625 167.21875 C 149.316406 167.21875 148.75 167.480469 148.371094 167.9375 C 148 168.386719 147.84375 168.988281 147.960938 169.566406 C 149.734375 178.679688 154.085938 184.523438 158.601562 188.234375 C 147.410156 182.671875 144.839844 169.457031 144.710938 168.722656 C 144.539062 167.78125 143.710938 167.105469 142.757812 167.105469 C 142.742188 167.105469 142.734375 167.105469 142.726562 167.105469 L 139.929688 167.148438 Z M 147.921875 113.871094 C 147.921875 112.777344 148.8125 111.894531 149.90625 111.894531 L 183.605469 111.894531 C 184.699219 111.894531 185.589844 112.777344 185.589844 113.871094 L 185.589844 115.847656 C 185.589844 116.9375 184.699219 117.824219 183.605469 117.824219 L 149.90625 117.824219 C 148.8125 117.824219 147.921875 116.9375 147.921875 115.847656 Z M 211.359375 163.269531 C 211.359375 168.292969 209.796875 173.054688 206.871094 177.097656 L 199.464844 177.097656 C 196.183594 177.097656 193.519531 179.753906 193.519531 183.027344 L 193.519531 184.996094 C 193.519531 185.402344 193.566406 185.804688 193.644531 186.191406 C 191.667969 186.707031 189.632812 186.96875 187.570312 186.96875 C 174.453125 186.96875 163.78125 176.335938 163.78125 163.269531 C 163.78125 150.191406 174.453125 139.558594 187.570312 139.558594 C 200.691406 139.558594 211.359375 150.191406 211.359375 163.269531 Z M 225.238281 151.414062 C 226.328125 151.414062 227.21875 152.292969 227.21875 153.386719 L 227.21875 155.363281 C 227.21875 156.453125 226.328125 157.339844 225.238281 157.339844 L 214.667969 157.339844 C 214.210938 155.265625 213.507812 153.28125 212.609375 151.414062 Z M 215.226562 161.292969 L 225.238281 161.292969 C 226.328125 161.292969 227.21875 162.171875 227.21875 163.269531 L 227.21875 165.242188 C 227.21875 166.332031 226.328125 167.21875 225.238281 167.21875 L 215.03125 167.21875 C 215.21875 165.914062 215.324219 164.601562 215.324219 163.269531 C 215.324219 162.597656 215.273438 161.949219 215.226562 161.292969 Z M 211.59375 177.097656 C 212.683594 175.214844 213.542969 173.230469 214.15625 171.171875 L 225.238281 171.171875 C 226.328125 171.171875 227.21875 172.050781 227.21875 173.148438 L 227.21875 175.121094 C 227.21875 176.210938 226.328125 177.097656 225.238281 177.097656 Z M 235.148438 183.027344 L 235.148438 184.996094 C 235.148438 186.089844 234.261719 186.96875 233.167969 186.96875 L 199.464844 186.96875 C 198.375 186.96875 197.484375 186.089844 197.484375 184.996094 L 197.484375 183.027344 C 197.484375 181.929688 198.375 181.050781 199.464844 181.050781 L 233.167969 181.050781 C 234.261719 181.050781 235.148438 181.929688 235.148438 183.027344 Z M 159.917969 161.292969 C 159.871094 161.949219 159.816406 162.597656 159.816406 163.269531 C 159.816406 164.609375 159.949219 165.921875 160.136719 167.21875 L 158.75 167.21875 L 153.644531 161.292969 Z M 147.921875 125.726562 L 147.921875 123.75 C 147.921875 122.65625 148.8125 121.773438 149.90625 121.773438 L 183.605469 121.773438 C 184.699219 121.773438 185.589844 122.65625 185.589844 123.75 L 185.589844 125.726562 C 185.589844 126.816406 184.699219 127.703125 183.605469 127.703125 L 149.90625 127.703125 C 148.8125 127.703125 147.921875 126.816406 147.921875 125.726562 Z M 147.921875 135.605469 L 147.921875 133.628906 C 147.921875 132.535156 148.8125 131.65625 149.90625 131.65625 L 183.605469 131.65625 C 184.699219 131.65625 185.589844 132.535156 185.589844 133.628906 L 185.589844 135.605469 C 185.589844 135.636719 185.574219 135.667969 185.574219 135.699219 C 182.683594 135.90625 179.914062 136.546875 177.335938 137.582031 L 149.90625 137.582031 C 148.8125 137.582031 147.921875 136.695312 147.921875 135.605469 Z M 147.921875 145.484375 L 147.921875 143.507812 C 147.921875 142.414062 148.8125 141.535156 149.90625 141.535156 L 170.457031 141.535156 C 168.304688 143.214844 166.398438 145.214844 164.828125 147.460938 L 149.90625 147.460938 C 148.8125 147.460938 147.921875 146.574219 147.921875 145.484375 Z M 147.921875 153.386719 C 147.921875 152.292969 148.8125 151.414062 149.90625 151.414062 L 162.535156 151.414062 C 161.636719 153.28125 160.933594 155.265625 160.476562 157.339844 L 150.246094 157.339844 L 147.921875 154.632812 Z M 154.636719 177.097656 C 153.753906 175.347656 152.980469 173.386719 152.390625 171.171875 L 160.988281 171.171875 C 161.613281 173.261719 162.488281 175.238281 163.574219 177.097656 Z M 134.269531 170.113281 C 134.617188 170.761719 135.292969 171.171875 136.027344 171.171875 C 136.042969 171.171875 136.050781 171.171875 136.058594 171.171875 L 141.210938 171.078125 C 142.742188 176.691406 149.261719 194.625 169.582031 194.625 C 170.441406 194.625 171.316406 194.59375 172.230469 194.527344 C 173.238281 194.457031 174.027344 193.636719 174.058594 192.628906 C 174.097656 191.617188 173.363281 190.746094 172.355469 190.597656 C 171.859375 190.527344 163.21875 189.167969 157.097656 181.050781 L 166.347656 181.050781 C 171.433594 187.078125 179.0625 190.921875 187.570312 190.921875 C 190.390625 190.921875 193.164062 190.480469 195.828125 189.648438 C 196.832031 190.4375 198.089844 190.921875 199.464844 190.921875 L 233.167969 190.921875 C 236.453125 190.921875 239.113281 188.265625 239.113281 184.996094 L 239.113281 183.027344 C 239.113281 179.753906 236.453125 177.097656 233.167969 177.097656 L 230.820312 177.097656 C 231.039062 176.472656 231.183594 175.816406 231.183594 175.121094 L 231.183594 173.148438 C 231.183594 171.617188 230.589844 170.246094 229.636719 169.195312 C 230.589844 168.136719 231.183594 166.765625 231.183594 165.242188 L 231.183594 163.269531 C 231.183594 161.738281 230.589844 160.367188 229.636719 159.316406 C 230.589844 158.257812 231.183594 156.886719 231.183594 155.363281 L 231.183594 153.386719 C 231.183594 150.117188 228.523438 147.460938 225.238281 147.460938 L 210.316406 147.460938 C 205.644531 140.808594 198.132812 136.308594 189.539062 135.699219 C 189.539062 135.667969 189.554688 135.636719 189.554688 135.605469 L 189.554688 133.628906 C 189.554688 132.203125 189.027344 130.914062 188.183594 129.886719 L 201.542969 116.574219 L 216.007812 129.183594 C 216.8125 129.886719 218.035156 129.824219 218.773438 129.03125 L 237.132812 109.070312 L 237.132812 113.617188 L 241.097656 113.617188 L 241.097656 103.738281 C 241.097656 102.648438 240.207031 101.761719 239.113281 101.761719 L 229.203125 101.761719 L 229.203125 105.714844 L 234.839844 105.714844 L 217.152344 124.941406 L 202.75 112.382812 C 201.976562 111.695312 200.78125 111.734375 200.046875 112.46875 L 189.476562 123.003906 C 189.320312 121.773438 188.796875 120.671875 188.003906 119.800781 C 188.957031 118.742188 189.554688 117.367188 189.554688 115.847656 L 189.554688 113.871094 C 189.554688 110.597656 186.890625 107.945312 183.605469 107.945312 L 149.90625 107.945312 C 146.621094 107.945312 143.957031 110.597656 143.957031 113.871094 L 143.957031 115.847656 C 143.957031 117.367188 144.554688 118.742188 145.507812 119.800781 C 144.554688 120.847656 143.957031 122.222656 143.957031 123.75 L 143.957031 125.726562 C 143.957031 127.246094 144.554688 128.621094 145.507812 129.679688 C 144.554688 130.726562 143.957031 132.101562 143.957031 133.628906 L 143.957031 135.605469 C 143.957031 137.125 144.554688 138.5 145.507812 139.558594 C 144.554688 140.609375 143.957031 141.980469 143.957031 143.507812 L 143.957031 145.484375 C 143.957031 147.003906 144.554688 148.378906 145.507812 149.4375 C 144.554688 150.488281 143.957031 151.859375 143.957031 153.386719 L 143.957031 154.722656 L 134.417969 168.046875 C 133.984375 168.648438 133.921875 169.449219 134.269531 170.113281 " fill-opacity="1" fill-rule="nonzero"/></g><g fill="#ffffff" fill-opacity="1"><g transform="translate(116.927458, 242.555156)"><g><path d="M 24.898438 -4.066406 L 19.214844 -22.402344 L 15.429688 -22.402344 L 9.746094 -4.15625 L 4.203125 -24.714844 L 0.371094 -24.714844 L 7.296875 0 L 11.6875 0 L 17.183594 -17.644531 L 22.632812 0 L 27.023438 0 L 33.90625 -24.714844 L 30.488281 -24.714844 Z M 24.898438 -4.066406 "/></g></g></g><g fill="#ffffff" fill-opacity="1"><g transform="translate(152.53533, 242.555156)"><g><path d="M 17.136719 -10.625 C 17.136719 -14.828125 14.457031 -17.644531 10.207031 -17.644531 C 4.894531 -17.644531 1.617188 -13.625 1.617188 -8.082031 C 1.617188 -2.726562 4.664062 0.507812 10.441406 0.507812 C 12.980469 0.507812 14.964844 -0.136719 15.984375 -0.738281 L 16.445312 -3.601562 C 15.289062 -2.957031 13.441406 -2.355469 11.179688 -2.355469 C 7.160156 -2.355469 5.40625 -4.480469 5.21875 -7.992188 L 16.953125 -7.992188 C 17.089844 -8.824219 17.136719 -9.886719 17.136719 -10.625 Z M 9.886719 -14.921875 C 12.425781 -14.921875 13.859375 -13.304688 13.859375 -10.441406 L 13.859375 -10.394531 L 5.359375 -10.394531 C 5.820312 -13.210938 7.484375 -14.921875 9.886719 -14.921875 Z M 9.886719 -14.921875 "/></g></g></g><g fill="#ffffff" fill-opacity="1"><g transform="translate(172.856459, 242.555156)"><g><path d="M 17.414062 -2.261719 C 16.535156 -2.261719 16.074219 -2.773438 16.074219 -3.742188 L 16.074219 -11.6875 C 16.074219 -15.796875 13.71875 -17.644531 9.378906 -17.644531 C 6.789062 -17.644531 4.664062 -17 3.558594 -16.492188 L 3.046875 -13.582031 C 4.480469 -14.273438 6.511719 -14.828125 8.5 -14.828125 C 11.132812 -14.828125 12.5625 -13.8125 12.5625 -11.226562 L 12.5625 -9.515625 L 8.5 -9.515625 C 3.371094 -9.515625 1.753906 -6.882812 1.753906 -4.386719 C 1.753906 -1.339844 3.789062 0.507812 7.34375 0.507812 C 8.867188 0.507812 10.300781 0.136719 11.5 -0.460938 L 12.839844 -2.402344 C 12.933594 -0.96875 13.8125 0.324219 15.9375 0.324219 C 16.769531 0.324219 17.507812 0.183594 18.015625 0 L 18.382812 -2.402344 C 18.382812 -2.402344 18.015625 -2.261719 17.414062 -2.261719 Z M 8.5 -2.261719 C 6.191406 -2.261719 5.21875 -3.28125 5.21875 -4.757812 C 5.21875 -5.957031 6.003906 -7.113281 8.59375 -7.113281 L 12.5625 -7.113281 L 12.5625 -3.511719 C 11.457031 -2.679688 10.070312 -2.261719 8.5 -2.261719 Z M 8.5 -2.261719 "/></g></g></g><g fill="#ffffff" fill-opacity="1"><g transform="translate(193.408508, 242.555156)"><g><path d="M 6.375 0 L 6.375 -27.207031 L 2.773438 -26.699219 L 2.773438 0 Z M 6.375 0 "/></g></g></g><g fill="#ffffff" fill-opacity="1"><g transform="translate(203.892537, 242.555156)"><g><path d="M 12.933594 -17.183594 L 7.066406 -17.183594 L 7.066406 -21.988281 L 3.511719 -21.480469 L 3.511719 -17.183594 L 0.324219 -17.183594 L 0.324219 -14.367188 L 3.511719 -14.367188 L 3.511719 -4.621094 C 3.511719 -1.109375 5.21875 0.507812 8.546875 0.507812 C 9.976562 0.507812 11.410156 0.183594 12.378906 -0.277344 L 12.839844 -3.1875 C 12.011719 -2.773438 10.855469 -2.402344 9.652344 -2.402344 C 7.992188 -2.402344 7.066406 -3.140625 7.066406 -5.035156 L 7.066406 -14.367188 L 12.933594 -14.367188 Z M 12.933594 -17.183594 "/></g></g></g><g fill="#ffffff" fill-opacity="1"><g transform="translate(218.625453, 242.555156)"><g><path d="M 11.871094 -17.644531 C 9.421875 -17.644531 7.851562 -16.859375 7.621094 -16.769531 L 6.234375 -14.503906 L 6.375 -17.414062 L 6.375 -27.207031 L 2.773438 -26.699219 L 2.773438 0 L 6.375 0 L 6.375 -13.304688 C 7.574219 -14.273438 8.867188 -14.78125 10.578125 -14.78125 C 13.117188 -14.78125 14.457031 -13.304688 14.457031 -10.714844 L 14.457031 0 L 18.015625 0 L 18.015625 -11.59375 C 18.015625 -15.660156 15.660156 -17.644531 11.871094 -17.644531 Z M 11.871094 -17.644531 "/></g></g></g><g fill="#ffffff" fill-opacity="1"><g transform="translate(240.609174, 242.555156)"><g><path d="M 8.867188 -3.371094 L 3.832031 -17.414062 L 0.230469 -16.859375 L 6.511719 0 L 7.53125 0 L 3.789062 8.222656 L 7.207031 9.285156 L 17.230469 -17.183594 L 13.671875 -17.183594 Z M 8.867188 -3.371094 "/></g></g></g><g fill="#ffffff" fill-opacity="1"><g transform="translate(137.341519, 274.805154)"><g><path d="M 14.074219 -10.769531 L 5.101562 -10.769531 L 5.101562 -18.828125 L 2.289062 -18.828125 L 2.289062 0 L 5.101562 0 L 5.101562 -8.445312 L 14.074219 -8.445312 L 14.074219 0 L 16.890625 0 L 16.890625 -18.828125 L 14.074219 -18.828125 Z M 14.074219 -10.769531 "/></g></g></g><g fill="#ffffff" fill-opacity="1"><g transform="translate(157.570329, 274.805154)"><g><path d="M 13.054688 -8.09375 C 13.054688 -11.296875 11.015625 -13.441406 7.777344 -13.441406 C 3.730469 -13.441406 1.230469 -10.382812 1.230469 -6.160156 C 1.230469 -2.078125 3.554688 0.386719 7.953125 0.386719 C 9.886719 0.386719 11.402344 -0.105469 12.175781 -0.5625 L 12.527344 -2.746094 C 11.648438 -2.253906 10.242188 -1.792969 8.515625 -1.792969 C 5.453125 -1.792969 4.117188 -3.414062 3.976562 -6.085938 L 12.914062 -6.085938 C 13.019531 -6.722656 13.054688 -7.53125 13.054688 -8.09375 Z M 7.53125 -11.367188 C 9.464844 -11.367188 10.558594 -10.132812 10.558594 -7.953125 L 10.558594 -7.917969 L 4.082031 -7.917969 C 4.433594 -10.0625 5.699219 -11.367188 7.53125 -11.367188 Z M 7.53125 -11.367188 "/></g></g></g><g fill="#ffffff" fill-opacity="1"><g transform="translate(173.049876, 274.805154)"><g><path d="M 13.265625 -1.722656 C 12.597656 -1.722656 12.246094 -2.113281 12.246094 -2.851562 L 12.246094 -8.902344 C 12.246094 -12.035156 10.453125 -13.441406 7.144531 -13.441406 C 5.171875 -13.441406 3.554688 -12.949219 2.710938 -12.5625 L 2.324219 -10.347656 C 3.414062 -10.875 4.960938 -11.296875 6.476562 -11.296875 C 8.480469 -11.296875 9.570312 -10.523438 9.570312 -8.550781 L 9.570312 -7.25 L 6.476562 -7.25 C 2.570312 -7.25 1.335938 -5.242188 1.335938 -3.34375 C 1.335938 -1.019531 2.886719 0.386719 5.59375 0.386719 C 6.757812 0.386719 7.847656 0.105469 8.761719 -0.351562 L 9.78125 -1.828125 C 9.851562 -0.738281 10.523438 0.246094 12.140625 0.246094 C 12.773438 0.246094 13.335938 0.140625 13.722656 0 L 14.003906 -1.828125 C 14.003906 -1.828125 13.722656 -1.722656 13.265625 -1.722656 Z M 6.476562 -1.722656 C 4.714844 -1.722656 3.976562 -2.5 3.976562 -3.625 C 3.976562 -4.539062 4.574219 -5.417969 6.546875 -5.417969 L 9.570312 -5.417969 L 9.570312 -2.675781 C 8.726562 -2.042969 7.671875 -1.722656 6.476562 -1.722656 Z M 6.476562 -1.722656 "/></g></g></g><g fill="#ffffff" fill-opacity="1"><g transform="translate(188.70533, 274.805154)"><g><path d="M 4.855469 0 L 4.855469 -20.726562 L 2.113281 -20.339844 L 2.113281 0 Z M 4.855469 0 "/></g></g></g><g fill="#ffffff" fill-opacity="1"><g transform="translate(196.691606, 274.805154)"><g><path d="M 9.851562 -13.089844 L 5.382812 -13.089844 L 5.382812 -16.75 L 2.675781 -16.363281 L 2.675781 -13.089844 L 0.246094 -13.089844 L 0.246094 -10.945312 L 2.675781 -10.945312 L 2.675781 -3.519531 C 2.675781 -0.84375 3.976562 0.386719 6.511719 0.386719 C 7.601562 0.386719 8.691406 0.140625 9.429688 -0.210938 L 9.78125 -2.429688 C 9.148438 -2.113281 8.269531 -1.828125 7.355469 -1.828125 C 6.085938 -1.828125 5.382812 -2.394531 5.382812 -3.835938 L 5.382812 -10.945312 L 9.851562 -10.945312 Z M 9.851562 -13.089844 "/></g></g></g><g fill="#ffffff" fill-opacity="1"><g transform="translate(207.91442, 274.805154)"><g><path d="M 9.042969 -13.441406 C 7.179688 -13.441406 5.980469 -12.84375 5.804688 -12.773438 L 4.75 -11.050781 L 4.855469 -13.265625 L 4.855469 -20.726562 L 2.113281 -20.339844 L 2.113281 0 L 4.855469 0 L 4.855469 -10.132812 C 5.769531 -10.875 6.757812 -11.261719 8.058594 -11.261719 C 9.992188 -11.261719 11.015625 -10.132812 11.015625 -8.164062 L 11.015625 0 L 13.722656 0 L 13.722656 -8.832031 C 13.722656 -11.929688 11.929688 -13.441406 9.042969 -13.441406 Z M 9.042969 -13.441406 "/></g></g></g><g fill="#ffffff" fill-opacity="1"><g transform="translate(224.660438, 274.805154)"><g><path d="M 6.757812 -2.570312 L 2.921875 -13.265625 L 0.175781 -12.84375 L 4.960938 0 L 5.734375 0 L 2.886719 6.265625 L 5.488281 7.074219 L 13.125 -13.089844 L 10.417969 -13.089844 Z M 6.757812 -2.570312 "/></g></g></g><g fill="#ffffff" fill-opacity="1"><g transform="translate(150.337612, 301.805152)"><g><path d="M 12.875 -9.851562 L 4.667969 -9.851562 L 4.667969 -17.222656 L 2.09375 -17.222656 L 2.09375 0 L 4.667969 0 L 4.667969 -7.726562 L 12.875 -7.726562 L 12.875 0 L 15.453125 0 L 15.453125 -17.222656 L 12.875 -17.222656 Z M 12.875 -9.851562 "/></g></g></g><g fill="#ffffff" fill-opacity="1"><g transform="translate(168.841443, 301.805152)"><g><path d="M 12.136719 -1.578125 C 11.523438 -1.578125 11.203125 -1.929688 11.203125 -2.605469 L 11.203125 -8.144531 C 11.203125 -11.007812 9.558594 -12.296875 6.535156 -12.296875 C 4.730469 -12.296875 3.25 -11.847656 2.480469 -11.492188 L 2.125 -9.464844 C 3.121094 -9.945312 4.539062 -10.332031 5.921875 -10.332031 C 7.757812 -10.332031 8.753906 -9.625 8.753906 -7.820312 L 8.753906 -6.632812 L 5.921875 -6.632812 C 2.351562 -6.632812 1.222656 -4.796875 1.222656 -3.058594 C 1.222656 -0.933594 2.640625 0.355469 5.117188 0.355469 C 6.179688 0.355469 7.179688 0.0976562 8.015625 -0.320312 L 8.949219 -1.675781 C 9.011719 -0.675781 9.625 0.226562 11.105469 0.226562 C 11.683594 0.226562 12.199219 0.128906 12.554688 0 L 12.8125 -1.675781 C 12.8125 -1.675781 12.554688 -1.578125 12.136719 -1.578125 Z M 5.921875 -1.578125 C 4.3125 -1.578125 3.636719 -2.285156 3.636719 -3.316406 C 3.636719 -4.152344 4.183594 -4.957031 5.988281 -4.957031 L 8.753906 -4.957031 L 8.753906 -2.445312 C 7.984375 -1.867188 7.015625 -1.578125 5.921875 -1.578125 Z M 5.921875 -1.578125 "/></g></g></g><g fill="#ffffff" fill-opacity="1"><g transform="translate(183.161909, 301.805152)"><g><path d="M 7.886719 -12.296875 C 6.503906 -12.296875 5.441406 -11.78125 5.183594 -11.652344 L 4.3125 -10.171875 L 4.152344 -12.101562 L 1.929688 -11.78125 L 1.929688 6.117188 L 4.441406 6.117188 L 4.441406 -0.226562 C 5.152344 0.160156 6.082031 0.355469 7.113281 0.355469 C 10.589844 0.355469 12.972656 -2.382812 12.972656 -6.308594 C 12.972656 -9.980469 11.042969 -12.296875 7.886719 -12.296875 Z M 6.792969 -1.675781 C 5.890625 -1.675781 5.085938 -1.867188 4.441406 -2.316406 L 4.441406 -9.304688 C 5.183594 -9.914062 6.082031 -10.300781 7.082031 -10.300781 C 9.175781 -10.300781 10.429688 -8.660156 10.429688 -6.148438 C 10.429688 -3.414062 9.011719 -1.675781 6.792969 -1.675781 Z M 6.792969 -1.675781 "/></g></g></g><g fill="#ffffff" fill-opacity="1"><g transform="translate(198.029426, 301.805152)"><g><path d="M 7.886719 -12.296875 C 6.503906 -12.296875 5.441406 -11.78125 5.183594 -11.652344 L 4.3125 -10.171875 L 4.152344 -12.101562 L 1.929688 -11.78125 L 1.929688 6.117188 L 4.441406 6.117188 L 4.441406 -0.226562 C 5.152344 0.160156 6.082031 0.355469 7.113281 0.355469 C 10.589844 0.355469 12.972656 -2.382812 12.972656 -6.308594 C 12.972656 -9.980469 11.042969 -12.296875 7.886719 -12.296875 Z M 6.792969 -1.675781 C 5.890625 -1.675781 5.085938 -1.867188 4.441406 -2.316406 L 4.441406 -9.304688 C 5.183594 -9.914062 6.082031 -10.300781 7.082031 -10.300781 C 9.175781 -10.300781 10.429688 -8.660156 10.429688 -6.148438 C 10.429688 -3.414062 9.011719 -1.675781 6.792969 -1.675781 Z M 6.792969 -1.675781 "/></g></g></g><g fill="#ffffff" fill-opacity="1"><g transform="translate(212.896943, 301.805152)"><g><path d="M 6.179688 -2.351562 L 2.671875 -12.136719 L 0.160156 -11.75 L 4.539062 0 L 5.246094 0 L 2.640625 5.730469 L 5.023438 6.46875 L 12.007812 -11.976562 L 9.527344 -11.976562 Z M 6.179688 -2.351562 "/></g></g></g></svg>